<?xml version="1.0" encoding="utf-8"?>
<!-- Generator: Adobe Illustrator 27.0.1, SVG Export Plug-In . SVG Version: 6.00 Build 0)  -->
<svg version="1.1" id="Layer_1" xmlns="http://www.w3.org/2000/svg" xmlns:xlink="http://www.w3.org/1999/xlink" x="0px" y="0px"
	 viewBox="0 0 384 512" style="enable-background:new 0 0 384 512;" xml:space="preserve">
<path d="M320,16c26.5,0,48,21.5,48,48v431.1L192,393.3L16,496V64c0-26.5,21.5-48,48-48H320z M320,0H64C28.6,0,0,28.6,0,64v431.1
	c0,12.4,13.4,20,24.1,13.8L192,411.8l167.9,98c10.7,6.2,24.1-1.5,24.1-14.7V64C384,28.6,355.3,0,320,0z"/>
<path d="M200,97.5c0-4.4-3.6-8-8-8s-8,3.6-8,8v80h-80c-4.4,0-8,3.6-8,8s3.6,8,8,8h80v80c0,4.4,3.6,8,8,8s8-3.6,8-8v-80h80
	c4.4,0,8-3.6,8-8s-3.6-8-8-8h-80V97.5z"/>
</svg>
